<svg xmlns="http://www.w3.org/2000/svg" viewBox="186 11 350 350" width="64" height="64">
<path d="M0 0 C0.87215652 -0.00137466 1.74431305 -0.00274933 2.64289856 -0.00416565 C3.59164352 -0.00057037 4.54038849 0.0030249 5.5178833 0.00672913 C6.52308517 0.0065831 7.52828705 0.00643707 8.56394958 0.00628662 C11.88618122 0.00698324 15.20835677 0.01476394 18.53057861 0.02259827 C20.83414682 0.02446334 23.13771543 0.02588682 25.44128418 0.02688599 C31.5042836 0.03070414 37.56725907 0.04052848 43.63024902 0.05158997 C49.81707434 0.06181914 56.00390353 0.06638684 62.19073486 0.07142639 C74.3300683 0.08215135 86.46938397 0.09921939 98.60870361 0.12025452 C99.00092466 1.5322503 99.37181421 2.95018216 99.73370361 4.37025452 C100.0469458 5.55361389 100.0469458 5.55361389 100.36651611 6.76087952 C100.60870361 9.12025452 100.60870361 9.12025452 98.60870361 13.12025452 C47.12870361 13.61525452 47.12870361 13.61525452 -5.39129639 14.12025452 C-8.12458558 19.58683291 -8.76601409 21.12387386 -8.75878906 26.78141785 C-8.7620579 27.42580146 -8.76532674 28.07018507 -8.76869464 28.73409545 C-8.77594127 30.88014918 -8.76185085 33.02551265 -8.7477417 35.17152405 C-8.74853317 36.71629451 -8.75063227 38.26106478 -8.75393677 39.80583191 C-8.75906561 43.99686369 -8.74553779 48.18764933 -8.72840977 52.37864161 C-8.71332121 56.78419529 -8.71454623 61.18974645 -8.71374512 65.59532166 C-8.71005225 73.00813459 -8.69509756 80.42085497 -8.67254639 87.83363342 C-8.64383158 97.29052479 -8.63333534 106.74734107 -8.62886429 116.20427132 C-8.62484997 124.38753702 -8.61234295 132.57078701 -8.59851742 140.75404119 C-8.59445699 143.35525952 -8.59151165 145.95647733 -8.58872223 148.5576973 C-8.57530139 159.07928083 -8.5258366 169.599474 -8.39129639 180.12025452 C-8.37707138 181.26233116 -8.36284637 182.40440781 -8.34819031 183.58109283 C-8.30043326 186.46524624 -8.22357047 189.34621013 -8.12860107 192.22914124 C-8.1152837 193.01776613 -8.10196632 193.80639103 -8.08824539 194.61891365 C-7.93443584 198.61115443 -7.93443584 198.61115443 -5.75455856 201.80746078 C-2.67075297 203.52051687 -0.50064043 203.49773631 3.02313232 203.50120544 C3.98570206 203.5082254 3.98570206 203.5082254 4.96771765 203.51538718 C7.11583529 203.52734371 9.26331572 203.51787795 11.41143799 203.50843811 C12.95232007 203.51250354 14.49319924 203.51784526 16.03407288 203.52436829 C20.21792808 203.53805117 24.4015615 203.53273928 28.58542061 203.52323103 C32.96245042 203.51563946 37.33946115 203.52267864 41.7164917 203.52738953 C49.06715304 203.53284854 56.41772397 203.52565164 63.76837158 203.5113678 C72.26855829 203.49504098 80.76852914 203.50032939 89.26871061 203.51684701 C96.56477822 203.53045772 103.86078081 203.53238358 111.15685701 203.52453101 C115.51536886 203.5198522 119.87377921 203.51923532 124.23228455 203.52914047 C128.32976583 203.53780184 132.42696861 203.53180356 136.52441978 203.5144577 C138.02886683 203.5104884 139.53333728 203.5116345 141.03777504 203.5182457 C143.09025887 203.52643418 145.14184819 203.51617366 147.1942749 203.50120544 C148.91760921 203.49950883 148.91760921 203.49950883 150.67575836 203.49777794 C153.94176895 203.07738295 155.34032447 202.48703146 157.60870361 200.12025452 C158.02252655 197.28658721 158.18996433 194.82440865 158.18292236 191.98744202 C158.19708694 191.19500092 158.21125153 190.40255981 158.22584534 189.58610535 C158.26778267 187.05568356 158.28299526 184.52597515 158.29620361 181.99525452 C158.32521903 179.45772408 158.35970647 176.92037648 158.3986969 174.38298035 C158.42125805 172.80386102 158.43703238 171.22462804 158.44554138 169.64537048 C158.49912218 164.22983595 158.49912218 164.22983595 159.60870361 163.12025452 C161.43986244 163.02174281 163.27490295 162.99052823 165.10870361 162.99525452 C166.10901611 162.99267639 167.10932861 162.99009827 168.13995361 162.98744202 C170.60870361 163.12025452 170.60870361 163.12025452 171.60870361 164.12025452 C171.73467031 166.77738847 171.7973845 169.40706242 171.81182861 172.06556702 C171.81752869 172.86880402 171.82322876 173.67204102 171.82910156 174.49961853 C171.83857028 176.20615821 171.84509294 177.91271633 171.84893799 179.61927795 C171.85858622 182.21368671 171.88956678 184.80728386 171.92120361 187.40150452 C171.92773933 189.06035398 171.93298756 190.71920912 171.93682861 192.37806702 C171.94917542 193.1481308 171.96152222 193.91819458 171.97424316 194.71159363 C171.94474892 201.95480613 169.85076608 207.87819205 164.60870361 213.12025452 C159.68831802 215.60825193 156.09515478 216.49670817 150.5052948 216.50793457 C149.82567753 216.51332011 149.14606026 216.51870565 148.44584852 216.52425438 C146.18736351 216.53846763 143.92947012 216.53144717 141.67095947 216.52430725 C140.04421012 216.5300142 138.41746478 216.53697972 136.79072571 216.54510498 C132.38586117 216.56301264 127.98119608 216.56187289 123.5763061 216.5561626 C119.89573473 216.55306823 116.21520154 216.55916574 112.5346356 216.56520134 C103.85217988 216.5792362 95.16982258 216.57769306 86.48736572 216.56629944 C77.53439133 216.55481037 68.58171623 216.56890945 59.62878126 216.59569591 C51.93517033 216.61785146 44.24165336 216.62449088 36.54801279 216.6186195 C31.95581901 216.61524944 27.36381722 216.61766864 22.77165031 216.63487053 C18.45492495 216.65033604 14.13864345 216.64638871 9.82193565 216.62756538 C8.239307 216.62387884 6.65664547 216.62698993 5.07404709 216.63745117 C2.91056335 216.65065892 0.74854972 216.6391181 -1.41487122 216.62145996 C-3.22914911 216.62114604 -3.22914911 216.62114604 -5.08007908 216.62082577 C-11.15083619 215.70308277 -15.4849876 211.67761477 -19.39129639 207.12025452 C-21.31484892 202.51347385 -21.64241784 198.56210447 -21.64526367 193.59455872 C-21.64838365 192.85736485 -21.65150363 192.12017098 -21.65471816 191.3606379 C-21.66266744 188.90119594 -21.65638647 186.44200282 -21.65008545 183.9825592 C-21.65279677 182.21466935 -21.65635849 180.44678063 -21.66070557 178.67889404 C-21.66981771 173.88324809 -21.66628943 169.08768827 -21.6599474 164.29204082 C-21.65487817 159.26653501 -21.65958171 154.2410365 -21.66271973 149.2155304 C-21.66635802 140.77213724 -21.66156526 132.32877908 -21.65203857 123.88539124 C-21.64116839 114.13905358 -21.64466971 104.39279971 -21.65569139 94.64646411 C-21.664785 86.26832959 -21.66603898 77.8902202 -21.66081405 69.51208234 C-21.65770393 64.51291613 -21.65725832 59.5137892 -21.66388702 54.51462555 C-21.66968954 49.80978822 -21.66561063 45.10505814 -21.65409851 40.40023232 C-21.65146681 38.67899312 -21.65219138 36.95774482 -21.65662384 35.23650932 C-21.70609424 14.0639842 -21.70609424 14.0639842 -17.70379639 7.24525452 C-12.51942842 2.48124071 -7.05331207 -0.0086016 0 0 Z " fill="currentColor" transform="translate(213.39129638671875,77.87974548339844)"/>
<path d="M0 0 C1.74536293 -0.00856522 1.74536293 -0.00856522 3.52598572 -0.01730347 C5.44293999 -0.01898026 5.44293999 -0.01898026 7.39862061 -0.02069092 C8.75714757 -0.02531994 10.11567323 -0.03034471 11.47419739 -0.03573608 C15.16652026 -0.04885559 18.85882495 -0.05530437 22.55116749 -0.05974674 C24.85902208 -0.0626787 27.16687172 -0.06678379 29.47472382 -0.07125092 C36.69834757 -0.08492579 43.92195999 -0.09459202 51.14559579 -0.09845281 C59.47858184 -0.10293115 67.81140367 -0.12046861 76.1443398 -0.1494534 C82.58862113 -0.17108896 89.03285632 -0.18115812 95.47717357 -0.18249393 C99.32441824 -0.18354078 103.17150854 -0.18942282 107.0187149 -0.20731354 C110.6401213 -0.22382634 114.26125783 -0.22593433 117.88268852 -0.21717453 C119.83868755 -0.21604043 121.79467775 -0.22973374 123.75062561 -0.243927 C133.30697197 -0.19862714 139.40994785 1.14102695 146.40936279 8.14044189 C149.0274221 13.19166078 149.8458714 17.32618721 149.79704285 23.02763367 C149.80512115 24.17357478 149.80512115 24.17357478 149.81336266 25.34266621 C149.8275991 27.88667169 149.82054937 30.43015367 149.81341553 32.97418213 C149.81912135 34.80457984 149.82608643 36.63497399 149.83421326 38.46536255 C149.85213608 43.42612221 149.85097794 48.38670491 149.84527087 53.34748721 C149.84217783 57.49262483 149.84827275 61.63772851 149.85430962 65.78286129 C149.86835029 75.5632978 149.86679728 85.34364695 149.85540771 95.12408447 C149.84392605 105.20626453 149.85800408 115.28817859 149.88480419 125.3703236 C149.90697122 134.03465599 149.91359632 142.69890494 149.90772778 151.36326367 C149.90435952 156.53454748 149.90676469 161.70566079 149.92397881 166.8769207 C149.93946185 171.74027157 149.93547723 176.60322878 149.91667366 181.46656418 C149.9129916 183.24830997 149.91608509 185.03008501 149.92655945 186.81180382 C149.93979774 189.25040896 149.92819794 191.68771625 149.91056824 194.12626648 C149.92497575 195.17556112 149.92497575 195.17556112 149.93967432 196.24605364 C149.84622893 202.55877638 147.76557768 207.64394298 143.45691967 212.20912933 C137.24077074 216.36524244 132.21589927 216.98377394 124.83441162 216.85333252 C123.71132095 216.85742126 122.58823029 216.86151001 121.43110657 216.86572266 C117.74219261 216.87170819 114.05509359 216.83488259 110.36639404 216.79669189 C107.79288678 216.79057157 105.21937288 216.78682324 102.64585876 216.78533936 C97.26344564 216.77615254 91.88167059 216.74816365 86.49945068 216.70294189 C79.60270426 216.64511094 72.70636983 216.62448204 65.80940723 216.6155777 C60.49998929 216.60846083 55.19066267 216.58762441 49.88129234 216.56382751 C47.33799688 216.55244094 44.79469236 216.54291734 42.25138283 216.53529358 C38.69946875 216.52153597 35.14792548 216.49425841 31.59613037 216.46270752 C30.54715576 216.4604718 29.49818115 216.45823608 28.41741943 216.45593262 C23.35796386 216.39644386 19.14455292 216.157028 14.40936279 214.14044189 C14.09686279 211.95294189 14.09686279 211.95294189 14.40936279 209.14044189 C16.84686279 206.39044189 16.84686279 206.39044189 19.40936279 204.14044189 C19.73936279 203.81044189 20.06936279 203.48044189 20.40936279 203.14044189 C21.78299286 203.04937525 23.16128673 203.02741612 24.53791809 203.03364563 C25.42804596 203.03516129 26.31817383 203.03667694 27.23527527 203.03823853 C28.21964066 203.04497589 29.20400604 203.05171326 30.21820068 203.05865479 C31.76459229 203.06325462 31.76459229 203.06325462 33.34222412 203.06794739 C35.59033536 203.07512289 37.83844031 203.08452332 40.0865345 203.09584236 C43.64673909 203.11316979 47.20689914 203.12351279 50.76713562 203.13175964 C60.89328232 203.15626212 71.01936952 203.19166923 81.14544678 203.23638916 C87.33223001 203.2632196 93.51897804 203.28023403 99.70580864 203.29125786 C102.06326021 203.29745836 104.42070502 203.30745202 106.77812386 203.32133675 C110.08371516 203.3406202 113.38912308 203.34745901 116.69476318 203.35162354 C117.66495895 203.36038513 118.63515472 203.36914673 119.63475037 203.37817383 C125.21826343 203.37017063 130.1073192 202.97554182 135.40936279 201.14044189 C136.5939983 197.58653538 136.53828166 194.76428824 136.54307556 191.01106262 C136.5464739 189.9150173 136.5464739 189.9150173 136.54994088 188.79682964 C136.55628469 186.34177103 136.55545128 183.88676757 136.55462646 181.43170166 C136.5576177 179.67422412 136.56102014 177.91674725 136.56480408 176.15927124 C136.57365141 171.3804036 136.57598248 166.60155385 136.57661986 161.8226788 C136.5775684 157.83643686 136.58124603 153.85019911 136.58479196 149.86395878 C136.59293913 140.46157014 136.59537593 131.05919108 136.59466553 121.65679932 C136.59406449 111.94960486 136.60462085 102.24246593 136.62040919 92.53528553 C136.63347272 84.20741563 136.63884993 75.87956391 136.63821012 67.55168384 C136.6379548 62.5750149 136.6408245 57.59839529 136.65138817 52.62173653 C136.66104931 47.94241018 136.661162 43.26318056 136.65387154 38.58385086 C136.65282325 36.8649284 136.65520296 35.14599999 136.66123199 33.42708778 C136.66892054 31.0835454 136.66432811 28.74033966 136.65660095 26.39680481 C136.65714572 25.08438088 136.65769049 23.77195696 136.65825176 22.41976261 C136.42555047 19.35372806 136.13720859 17.64602585 134.40936279 15.14044189 C131.81520809 13.84336454 129.93202739 14.00866911 127.0259552 14 C125.311847 13.99143478 125.311847 13.99143478 123.56311035 13.98269653 C122.3033136 13.98157867 121.04351685 13.98046082 119.74554443 13.97930908 C118.41023114 13.97468165 117.07491918 13.96965709 115.73960876 13.96426392 C112.10741071 13.95113222 108.47523114 13.94469367 104.84301305 13.94025326 C102.5752298 13.93732427 100.30745164 13.93321984 98.03967094 13.92874908 C90.94846814 13.91507323 83.85727692 13.90540654 76.76606184 13.90154719 C68.57225589 13.89706357 60.37861653 13.87950209 52.18486124 13.8505466 C45.8561605 13.82895582 39.52750671 13.81884434 33.19876951 13.81750607 C29.41647057 13.81645633 25.63432821 13.81051265 21.85206795 13.79268646 C18.29552688 13.77625019 14.73926082 13.77402836 11.18269539 13.78282547 C9.25215793 13.78396726 7.32162978 13.77021626 5.3911438 13.756073 C3.67280586 13.76442673 3.67280586 13.76442673 1.91975403 13.77294922 C0.92220628 13.77148266 -0.07534147 13.7700161 -1.10311794 13.7685051 C-3.62669609 13.94660686 -3.62669609 13.94660686 -5.40801334 15.48721695 C-7.22245112 18.02367328 -7.02998241 20.25654744 -7.10235596 23.33966064 C-7.13780518 24.54815674 -7.17325439 25.75665283 -7.20977783 27.00177002 C-7.24361572 28.8957251 -7.24361572 28.8957251 -7.27813721 30.82794189 C-7.31229736 32.10218018 -7.34645752 33.37641846 -7.38165283 34.68927002 C-7.46424504 37.83957293 -7.53336056 40.98959346 -7.59063721 44.14044189 C-12.14511168 46.57092324 -14.54017406 46.13397563 -19.59063721 45.14044189 C-21.77882532 40.76406566 -20.91005528 34.94575249 -20.96563721 30.14044189 C-21.02171143 28.34800049 -21.02171143 28.34800049 -21.07891846 26.51934814 C-21.15608609 18.69112038 -20.2393065 12.60316815 -15.59063721 6.14044189 C-10.86040645 1.65220171 -6.4328703 0.01888675 0 0 Z " fill="currentColor" transform="translate(380.59063720703125,77.85955810546875)"/>
<path d="M0 0 C5.6228768 1.12457536 5.6228768 1.12457536 8.15625 3.58203125 C8.70410156 4.10216797 9.25195312 4.62230469 9.81640625 5.15820312 C10.37199219 5.70412109 10.92757812 6.25003906 11.5 6.8125 C12.61313383 7.88301966 13.72769494 8.95205741 14.84375 10.01953125 C15.37355469 10.53080566 15.90335937 11.04208008 16.44921875 11.56884766 C17.86708488 12.8773381 19.38362346 14.07677148 20.90625 15.26171875 C21.5971875 15.83535156 22.288125 16.40898437 23 17 C23 17.66 23 18.32 23 19 C23.556875 19.2475 24.11375 19.495 24.6875 19.75 C29.52377111 22.3642006 33.14581362 26.14581362 37 30 C38.66051136 31.50681114 40.32780151 33.00616935 42 34.5 C45.44098723 37.57557266 48.73670535 40.73670535 52 44 C53.89953537 45.69709056 55.82167391 47.36635194 57.74609375 49.03515625 C60.26623537 51.2320908 62.76112528 53.4552103 65.25 55.6875 C66.05953125 56.41324219 66.8690625 57.13898438 67.703125 57.88671875 C69.8614445 59.87251952 71.94200961 61.91096234 74 64 C74.5775 64.5775 75.155 65.155 75.75 65.75 C76.1625 66.1625 76.575 66.575 77 67 C75.47589059 70.75492877 73.22731235 72.80785724 70.1875 75.4375 C67.55660335 77.7456333 64.97521964 80.02478036 62.5 82.5 C57.24468899 87.75531101 51.59945195 92.61609667 46 97.5 C38.70691263 103.86513987 31.5666534 110.38527348 24.5 117 C12.16010651 128.54756524 12.16010651 128.54756524 7 133 C6.31292969 133.59425781 5.62585938 134.18851563 4.91796875 134.80078125 C4.28503906 135.19652344 3.65210938 135.59226563 3 136 C2.01 135.67 1.02 135.34 0 135 C0.01160156 134.27941406 0.02320313 133.55882812 0.03515625 132.81640625 C0.13840277 120.53006982 -0.45652184 108.27162133 -1 96 C-6.67412009 95.8507918 -12.34707878 95.74238107 -18.02270508 95.67041016 C-19.94999097 95.64038459 -21.87714191 95.5995502 -23.80395508 95.54736328 C-38.5955183 94.85258324 -38.5955183 94.85258324 -51 102 C-52.31024224 102.73054726 -53.64217314 103.4247381 -55 104.0625 C-61.34754237 107.11733302 -67.38520234 110.56824417 -73.3125 114.375 C-82.57453405 120.31716968 -91.86941089 125.67256331 -102 130 C-102.57304461 126.23223167 -101.94419084 124.91115674 -99.875 121.6171875 C-98.92829473 120.36094378 -97.96924471 119.11393657 -97 117.875 C-95.98425006 116.53394879 -94.96862588 115.19280232 -93.953125 113.8515625 C-93.44974609 113.19575195 -92.94636719 112.53994141 -92.42773438 111.86425781 C-87.24555745 105.09765333 -82.43447675 98.181377 -77.91796875 90.95703125 C-75.2885317 86.90309267 -72.47288105 82.9950269 -69.63916016 79.08227539 C-66.6652843 74.96843287 -63.84888716 70.78165098 -61.15625 66.4765625 C-60.7746875 65.98929687 -60.393125 65.50203125 -60 65 C-59.34 65 -58.68 65 -58 65 C-57.814375 64.195625 -57.62875 63.39125 -57.4375 62.5625 C-55.79257428 58.48594497 -53.56715148 55.70623828 -50.8125 52.3203125 C-48.62899492 49.52504954 -46.82342114 46.59387118 -45.04296875 43.53125 C-44 42 -44 42 -42 41 C-40.64154807 40.91097507 -39.27884026 40.88239868 -37.91748047 40.88647461 C-36.65639969 40.88658791 -36.65639969 40.88658791 -35.36984253 40.88670349 C-34.00727829 40.89444542 -34.00727829 40.89444542 -32.6171875 40.90234375 C-31.68778351 40.9037587 -30.75837952 40.90517365 -29.80081177 40.90663147 C-26.82550876 40.91223947 -23.85028036 40.92479332 -20.875 40.9375 C-18.86067817 40.94251397 -16.84635516 40.94707705 -14.83203125 40.95117188 C-9.8879688 40.96136162 -4.94406815 40.98093547 0 41 C0 27.47 0 13.94 0 0 Z M12 24 C11.96241577 25.21901001 11.96241577 25.21901001 11.92407227 26.46264648 C11.80850882 30.12110752 11.68560416 33.77928528 11.5625 37.4375 C11.52318359 38.71689453 11.48386719 39.99628906 11.44335938 41.31445312 C11.40146484 42.52939453 11.35957031 43.74433594 11.31640625 44.99609375 C11.27974854 46.12200928 11.24309082 47.2479248 11.20532227 48.40795898 C11 51 11 51 10 52 C8.61322025 52.06691287 7.22301445 52.06488551 5.83496094 52.03417969 C4.95024109 52.0179657 4.06552124 52.00175171 3.1539917 51.98504639 C1.70878143 51.95377655 1.70878143 51.95377655 0.234375 51.921875 C-1.79034843 51.89460614 -3.81508925 51.86860466 -5.83984375 51.84375 C-9.0442531 51.80054669 -12.24776671 51.75005041 -15.45166016 51.67773438 C-18.53562263 51.61105411 -21.61861129 51.57632548 -24.703125 51.546875 C-26.13618988 51.50345978 -26.13618988 51.50345978 -27.59820557 51.45916748 C-32.15128324 51.44087382 -34.27195313 51.43756268 -37.96655273 54.29174805 C-38.63759033 55.18547119 -39.30862793 56.07919434 -40 57 C-40.50893799 57.63945557 -41.01787598 58.27891113 -41.54223633 58.93774414 C-41.96786865 59.54739014 -42.39350098 60.15703613 -42.83203125 60.78515625 C-43.31655762 61.47488525 -43.80108398 62.16461426 -44.30029297 62.87524414 C-44.79932129 63.59703857 -45.29834961 64.31883301 -45.8125 65.0625 C-46.33730957 65.81329834 -46.86211914 66.56409668 -47.40283203 67.33764648 C-51.0953554 72.6387883 -54.68618152 78.00100753 -58.2421875 83.39453125 C-60.69619778 87.03191982 -63.30952575 90.53499528 -66 94 C-65.67 94.66 -65.34 95.32 -65 96 C-64.33355469 95.63648438 -63.66710937 95.27296875 -62.98046875 94.8984375 C-59.98697917 93.265625 -56.99348958 91.6328125 -54 90 C-53.24328003 89.51249268 -52.48656006 89.02498535 -51.70690918 88.52270508 C-44.35024097 84.01509565 -38.63832615 83.17927167 -30.11328125 83.4140625 C-28.93025925 83.42255219 -27.74723724 83.43104187 -26.52836609 83.43978882 C-22.78877611 83.47309366 -19.0514266 83.54833621 -15.3125 83.625 C-12.76109908 83.65512892 -10.209664 83.68249954 -7.65820312 83.70703125 C-1.43726674 83.76768386 4.77889066 83.88514875 11 84 C11.33 92.91 11.66 101.82 12 111 C18.88283783 106.8702973 24.4110689 101.7399833 30 96 C33.47398788 92.47858566 37.03490743 89.0856119 40.6875 85.75 C41.20497803 85.27618896 41.72245605 84.80237793 42.25561523 84.31420898 C46.44291226 80.48690292 50.67946559 76.71672563 54.94140625 72.97265625 C56.89205877 71.10343515 58.45328515 69.2088867 60 67 C58.62514468 65.45833358 58.62514468 65.45833358 57 64 C56.34 64 55.68 64 55 64 C54.77570313 63.43925781 54.55140625 62.87851563 54.3203125 62.30078125 C52.60687657 59.31494172 50.45183939 57.46645963 47.875 55.1875 C47.12923706 54.522948 47.12923706 54.522948 46.3684082 53.8449707 C43.03598953 50.88252202 39.66354558 47.96572504 36.29296875 45.046875 C34.39437159 43.35204551 32.53045039 41.63290564 30.67578125 39.890625 C30.07161377 39.32384033 29.46744629 38.75705566 28.8449707 38.1730957 C27.65132456 37.05021223 26.46083371 35.92396108 25.27416992 34.79370117 C21.08335049 30.85154539 16.66307692 27.36786189 12 24 Z " fill="currentColor" transform="translate(340,116)"/>
<path d="M0 0 C0 0.99 0 1.98 0 3 C-0.99 3.66 -1.98 4.32 -3 5 C-1.125 1.125 -1.125 1.125 0 0 Z M-5 5 C-4.34 5.33 -3.68 5.66 -3 6 C-5.97 8.97 -8.94 11.94 -12 15 C-12.99 14.67 -13.98 14.34 -15 14 C-11.83047153 10.73991357 -8.60062011 7.77762123 -5 5 Z " fill="currentColor" transform="translate(375,206)"/>
<path d="M0 0 C0.66 0.33 1.32 0.66 2 1 C-0.64 3.64 -3.28 6.28 -6 9 C-6.33 8.34 -6.66 7.68 -7 7 C-4.78071806 4.09197539 -3.07030857 2.04687238 0 0 Z " fill="currentColor" transform="translate(201,81)"/>
</svg>
